<?xml version="1.0" encoding="iso-8859-1"?>
<!-- Uploaded to: SVG Repo, www.svgrepo.com, Generator: SVG Repo Mixer Tools -->
<!DOCTYPE svg PUBLIC "-//W3C//DTD SVG 1.1//EN" "http://www.w3.org/Graphics/SVG/1.1/DTD/svg11.dtd">
<svg fill="#000000" version="1.1" id="Capa_1" xmlns="http://www.w3.org/2000/svg" xmlns:xlink="http://www.w3.org/1999/xlink" 
	 width="800px" height="800px" viewBox="0 0 376.657 376.657"
	 xml:space="preserve">
<g>
	<g>
		<path d="M134.659,179.844l-7.627,4.054c-5.697,1.647-4.875-5.793-4.875-5.793c13.293-2.892,19.306-9.697,19.306-9.697
			c1.911-7.352-15.176-19.663-25.085-24.396c-2.861-1.385-2.725-2.817-6.15-2.776c-3.438,0.044-3.873,3.371-5.009,4.135
			c-9.489,7.707-27.639,26.17-27.639,26.17h-9.474c-2.111-36.87-31.937-36.476-31.937-36.476
			C2.477,137.517,0.01,177.888,0.01,177.888s-0.877,22.458,13.828,23.853c12.635,1.717,16.353-23.853,16.353-23.853
			c-0.873,14.127,1.405,39.051,1.405,39.051c2.197,24.681,29.813,29.386,30.273,29.525c6.862,2.104,16.323,1.67,28.706-0.839
			c15.142-2.524,12.691-7.455,7.9-7.455c-2.524-0.307-3.694-0.444-3.694-0.444c-8.825-2.733,5.496-4.838,7.636-5.037
			c2.14-0.196,2.262-3.446,2.262-3.446c2.202-31.854,20.913-35.566,35.872-42.965C147.305,183.721,141.496,177.284,134.659,179.844z
			 M120.2,158.92c-1.212,0-2.192-0.979-2.192-2.201c0-1.207,0.98-2.183,2.192-2.183c1.211,0,2.191,0.976,2.191,2.183
			C122.391,157.941,121.411,158.92,120.2,158.92z"/>
		<path d="M166.676,233.467c-3.672,0-7.121-0.645-10.249-1.922c-3.131-1.271-5.896-3.053-8.215-5.277
			c-2.325-2.229-4.166-4.879-5.469-7.914c-1.308-3.01-1.979-6.312-1.979-9.801c0-3.479,0.683-6.766,2.003-9.752
			c1.337-2.979,3.186-5.582,5.48-7.756c2.295-2.154,5.025-3.875,8.112-5.122c3.104-1.229,6.483-1.854,10.047-1.854
			c2.11,0,4.193,0.199,6.202,0.624c2.014,0.432,3.925,1.016,5.676,1.769c1.742,0.739,3.402,1.636,4.91,2.642
			c1.154,0.771,2.191,1.567,3.117,2.401v-8.008c-2.836-2.175-5.904-3.748-9.152-4.679c-3.323-0.945-6.996-1.443-10.88-1.443
			c-4.791,0-9.289,0.801-13.392,2.355c-4.08,1.551-7.677,3.752-10.701,6.518c-2.988,2.755-5.387,6.1-7.074,9.921
			c-1.71,3.812-2.57,8.011-2.57,12.513c0,4.646,0.883,8.953,2.627,12.838c1.75,3.888,4.16,7.238,7.179,9.976
			c3.013,2.748,6.604,4.916,10.633,6.468c4.045,1.53,8.423,2.317,13.034,2.317c4.104,0,7.925-0.526,11.401-1.597
			c3.364-1.017,6.576-2.664,9.555-4.899v-8.051c-2.439,2.213-5.229,4.016-8.286,5.396
			C175.246,232.68,171.197,233.467,166.676,233.467z"/>
		<path d="M245.612,186.525c-2.854-2.84-6.354-5.096-10.434-6.706c-4.084-1.621-8.701-2.444-13.745-2.444
			c-4.992,0-9.609,0.813-13.736,2.418c-4.118,1.604-7.685,3.83-10.598,6.636c-2.915,2.804-5.205,6.155-6.827,9.94
			c-1.617,3.799-2.438,7.974-2.438,12.431c0,4.407,0.787,8.586,2.346,12.396c1.551,3.809,3.786,7.176,6.666,9.971
			c2.864,2.81,6.384,5.058,10.429,6.672c4.058,1.621,8.644,2.441,13.646,2.441c4.998,0,9.628-0.82,13.74-2.441
			c4.121-1.614,7.695-3.862,10.64-6.672c2.935-2.812,5.24-6.174,6.856-9.971c1.617-3.82,2.438-8.002,2.438-12.396
			c0-4.365-0.798-8.517-2.347-12.312C250.685,192.688,248.447,189.333,245.612,186.525z M244.488,218.267
			c-1.147,2.983-2.816,5.653-4.963,7.918c-2.143,2.272-4.813,4.101-7.938,5.416c-3.122,1.321-6.707,1.998-10.673,1.998
			c-3.892,0-7.407-0.677-10.479-2.03c-3.07-1.337-5.714-3.16-7.826-5.438c-2.14-2.271-3.774-4.934-4.878-7.912
			s-1.669-6.146-1.669-9.416c0-3.275,0.609-6.438,1.812-9.416c1.188-2.986,2.901-5.65,5.094-7.889
			c2.192-2.236,4.878-4.062,7.987-5.408c3.121-1.344,6.646-2.02,10.479-2.02c3.885,0,7.396,0.687,10.459,2.053
			c3.049,1.363,5.676,3.199,7.799,5.478c2.123,2.262,3.766,4.922,4.864,7.875c1.111,2.965,1.663,6.104,1.663,9.324
			C246.223,212.116,245.647,215.307,244.488,218.267z"/>
		<rect x="260.55" y="128.85" width="8.764" height="110.01"/>
		<rect x="281.532" y="178.808" width="8.762" height="60.054"/>
		<path d="M290.002,153.975c-0.518-0.487-1.124-0.879-1.812-1.141c-0.707-0.266-1.432-0.398-2.204-0.398
			c-1.684,0-3.029,0.506-4.153,1.539c-1.113,1.009-1.663,2.238-1.663,3.752c0,0.713,0.153,1.385,0.445,2.002
			c0.288,0.643,0.702,1.222,1.218,1.698c0.506,0.483,1.146,0.875,1.864,1.159c1.395,0.558,3.035,0.591,4.479,0
			c0.702-0.284,1.32-0.676,1.826-1.159c0.521-0.487,0.938-1.067,1.255-1.71c0.315-0.616,0.466-1.288,0.466-1.99
			c0-0.738-0.146-1.433-0.466-2.053C290.936,155.023,290.523,154.455,290.002,153.975z"/>
		<path d="M330.818,210.767c-1.271-1.263-2.735-2.36-4.366-3.293c-1.657-0.925-3.361-1.783-5.062-2.541
			c-1.735-0.765-3.447-1.502-5.116-2.19c-1.669-0.707-3.207-1.504-4.526-2.334c-1.343-0.849-2.444-1.82-3.277-2.896
			c-0.871-1.123-1.315-2.526-1.315-4.125c0-1.351,0.252-2.644,0.718-3.812c0.481-1.176,1.147-2.218,2.009-3.111
			c0.866-0.89,1.922-1.605,3.128-2.104c1.209-0.535,2.581-0.775,4.078-0.775c2.477,0,4.712,0.609,6.608,1.832
			c1.756,1.111,3.329,2.583,4.692,4.406l4.113-4.58c-1.768-2.319-3.854-4.217-6.214-5.624c-2.474-1.492-5.605-2.241-9.329-2.241
			c-2.509,0-4.845,0.398-6.955,1.196c-2.088,0.775-3.918,1.891-5.45,3.305c-1.516,1.407-2.709,3.113-3.553,5.081
			c-0.845,1.968-1.268,4.177-1.268,6.552c0,2.203,0.373,4.135,1.136,5.719c0.764,1.613,1.797,3.021,3.053,4.184
			c1.258,1.193,2.729,2.225,4.354,3.1c1.69,0.87,3.393,1.701,5.083,2.443l5.104,2.264c1.692,0.745,3.23,1.62,4.551,2.59
			c1.354,0.984,2.456,2.15,3.281,3.447c0.844,1.35,1.278,2.977,1.278,4.854c0,1.549-0.271,3.068-0.818,4.486
			c-0.55,1.422-1.349,2.695-2.354,3.785c-1.019,1.104-2.25,1.977-3.672,2.617c-1.438,0.637-3.057,0.965-4.82,0.965
			c-1.842,0-3.598-0.303-5.229-0.92c-1.636-0.605-3.145-1.463-4.523-2.553c-1.358-1.064-2.616-2.326-3.708-3.729
			c-0.978-1.261-1.8-2.588-2.513-3.978l-4.517,4.051c0.923,1.957,2.047,3.753,3.338,5.324c1.396,1.69,2.97,3.16,4.688,4.354
			c1.715,1.213,3.64,2.147,5.723,2.797c2.07,0.646,4.302,0.974,6.619,0.974c2.698,0,5.244-0.483,7.574-1.433
			c2.335-0.938,4.398-2.271,6.109-3.955c1.709-1.676,3.074-3.696,4.058-6.021c0.12-0.271,0.188-0.553,0.266-0.838
			c0.028-0.121,0.062-0.254,0.101-0.381c-0.035-0.057,0.656-2.197,0.656-2.197c0.308-1.461,0.454-2.846,0.454-4.217
			c0-2.332-0.385-4.359-1.146-6.037C333.087,213.512,332.07,212.022,330.818,210.767z"/>
		<path d="M375.513,215.202c-0.765-1.689-1.782-3.18-3.043-4.436c-1.268-1.264-2.729-2.361-4.358-3.293
			c-1.651-0.924-3.367-1.783-5.077-2.541c-1.73-0.766-3.431-1.502-5.104-2.191c-1.687-0.707-3.207-1.504-4.536-2.334
			c-1.331-0.848-2.436-1.82-3.271-2.896c-0.86-1.123-1.31-2.527-1.31-4.125c0-1.35,0.231-2.643,0.718-3.812
			c0.471-1.176,1.146-2.218,1.996-3.111c0.857-0.89,1.929-1.606,3.122-2.104c1.224-0.535,2.592-0.775,4.078-0.775
			c2.488,0,4.718,0.609,6.629,1.832c1.743,1.111,3.312,2.583,4.676,4.406l4.125-4.58c-1.771-2.319-3.853-4.217-6.207-5.624
			c-2.479-1.492-5.606-2.241-9.337-2.241c-2.516,0-4.843,0.398-6.955,1.196c-2.083,0.775-3.923,1.891-5.443,3.305
			c-1.522,1.407-2.714,3.113-3.559,5.081c-0.843,1.969-1.27,4.178-1.27,6.553c0,2.202,0.373,4.135,1.138,5.719
			c0.764,1.613,1.786,3.021,3.035,4.181c1.271,1.196,2.733,2.226,4.378,3.101c1.677,0.87,3.393,1.7,5.07,2.442l5.118,2.265
			c1.688,0.745,3.218,1.62,4.55,2.59c1.345,0.983,2.443,2.151,3.271,3.446c0.854,1.351,1.285,2.978,1.285,4.854
			c0,1.548-0.283,3.068-0.828,4.486c-0.544,1.422-1.342,2.694-2.346,3.784c-1.021,1.104-2.258,1.978-3.687,2.617
			c-1.436,0.638-3.035,0.965-4.82,0.965c-1.829,0-3.598-0.303-5.223-0.92c-1.622-0.604-3.146-1.463-4.531-2.553
			c-1.356-1.063-2.604-2.326-3.692-3.729c-0.972-1.261-1.805-2.591-2.51-3.979l-4.523,4.051c0.923,1.957,2.036,3.752,3.344,5.324
			c1.396,1.69,2.968,3.161,4.688,4.354c1.71,1.213,3.638,2.147,5.72,2.797c2.077,0.644,4.306,0.972,6.627,0.972
			c2.697,0,5.239-0.484,7.575-1.431c2.328-0.94,4.383-2.272,6.104-3.955c1.704-1.677,3.069-3.698,4.062-6.021
			c0.099-0.271,0.174-0.556,0.254-0.838c0.04-0.123,0.062-0.257,0.105-0.382c-0.03-0.056,0.646-2.196,0.646-2.196
			c0.312-1.463,0.46-2.849,0.46-4.217C376.658,218.907,376.273,216.879,375.513,215.202z"/>
	</g>
</g>
</svg>