<?xml version="1.0" encoding="iso-8859-1"?>
<!-- Uploaded to: SVG Repo, www.svgrepo.com, Generator: SVG Repo Mixer Tools -->
<!DOCTYPE svg PUBLIC "-//W3C//DTD SVG 1.1//EN" "http://www.w3.org/Graphics/SVG/1.1/DTD/svg11.dtd">
<svg fill="#000000" version="1.1" id="Capa_1" xmlns="http://www.w3.org/2000/svg" xmlns:xlink="http://www.w3.org/1999/xlink" 
	 width="800px" height="800px" viewBox="0 0 460.434 460.433"
	 xml:space="preserve">
<g>
	<g>
		<path d="M122.408,203.502c-6.092-0.043-9.857,0.602-11.286,1.937c-1.526,1.156-2.289,4.154-2.289,8.997v31.192
			c0,5.062,0.792,8.188,2.357,9.363c1.579,1.178,5.359,1.789,11.361,1.832c5.949,0.046,9.713-0.566,11.286-1.832
			c1.571-1.271,2.357-4.365,2.357-9.303v-11.662h-11.939v12.393c0,1.209-0.568,1.762-1.704,1.676
			c-0.591,0.041-1.039-0.146-1.337-0.57c-0.288-0.42-0.441-1.076-0.441-1.969v-30.652c0-1.782,0.521-2.668,1.556-2.668
			c1.291,0,1.928,0.863,1.928,2.596v6.865h11.939V214.5c0.047-4.754-0.71-7.798-2.283-9.132
			C132.244,204.17,128.411,203.548,122.408,203.502z"/>
		<path d="M165.408,206.067c-2.043-1.293-4.855-2.564-11.018-2.564h-13.787v53.324h12.151v-21.196h0.725
			c1.112,0,1.858,0.215,2.249,0.631c0.384,0.429,0.579,1.146,0.579,2.168v18.396h12.152v-17.329c0-2.442-0.327-4.265-0.999-5.468
			c-0.85-1.506-2.388-2.597-4.612-3.267c2.415-0.799,3.999-2.067,4.763-3.797c0.567-1.334,0.85-3.644,0.85-6.931v-4.436
			C168.462,210.623,167.446,207.445,165.408,206.067z M156.308,223.633c0,1.463-0.821,2.201-2.461,2.201l-1.092-0.136v-13.532h1.092
			c1.105,0,1.853,0.184,2.242,0.536l0.219,2.402V223.633z"/>
		<polygon points="173.505,256.824 193.717,256.695 193.717,247.96 185.589,247.96 185.589,231.765 193.717,231.765 
			193.717,223.168 185.589,223.168 185.589,212.237 193.717,212.237 193.717,203.502 173.505,203.635 		"/>
		<path d="M204.777,203.502l-7.253,53.323h11.304l0.849-10.528h4.905l0.924,10.528h11.441l-7.533-53.323H204.777z M210.385,237.568
			l1.678-20.467l1.875,20.526L210.385,237.568z"/>
		<polygon points="251.107,203.502 226.452,203.502 226.515,212.237 232.844,212.237 232.844,256.824 244.969,256.824 
			244.857,212.237 251.182,212.237 		"/>
		<polygon points="255.939,256.824 268.223,256.824 268.236,203.502 255.939,203.502 		"/>
		<polygon points="287.92,238.964 285.145,203.502 273.633,203.57 281.305,256.824 294.812,256.824 302.201,203.502 
			290.617,203.502 		"/>
		<polygon points="306.965,256.824 326.461,256.695 326.461,247.96 319.043,247.96 319.043,231.765 326.461,231.765 
			326.461,223.168 319.043,223.168 319.043,212.237 326.461,212.237 326.461,203.608 306.965,203.635 		"/>
		<path d="M364.6,205.168c-1.609-1.109-5.262-1.666-10.947-1.666h-13.713v53.323h13.855c5.688,0,9.311-0.559,10.873-1.666
			c1.945-1.334,2.916-4.506,2.916-9.53v-8.599c0-2.532-0.312-4.356-0.924-5.465c-0.715-1.47-2.211-2.581-4.48-3.335
			c3.648-0.795,5.475-3.486,5.475-8.064v-5.594C367.654,209.636,366.631,206.506,364.6,205.168z M355.506,246.562
			c0,1.244-0.859,1.799-2.564,1.666l-0.988-0.066v-15.399h0.939c1.211,0.047,1.943,0.236,2.215,0.568
			c0.266,0.336,0.398,1.032,0.398,2.1V246.562L355.506,246.562z M355.506,221.567c0,1.245-0.842,1.822-2.514,1.732l-1.043-0.068
			v-11.065h0.924l2.129,0.536c0.332,0.359,0.504,1.045,0.504,2.069V221.567z"/>
		<polygon points="384.643,203.502 372.555,203.502 372.555,256.759 393.703,256.824 393.703,248.095 384.643,248.095 		"/>
		<path d="M420.377,205.034c-1.557-1.021-5.184-1.534-10.867-1.534c-6.113,0-9.881,0.668-11.299,2.002
			c-1.467,1.111-2.207,4.108-2.207,8.997v31.126c0,4.93,0.811,8.021,2.414,9.264c1.611,1.244,5.357,1.894,11.229,1.937
			c5.975,0.045,9.748-0.576,11.338-1.869c1.592-1.285,2.385-4.375,2.385-9.266V214.5
			C423.367,209.524,422.375,206.369,420.377,205.034z M411.426,246.49c0,1.115-0.572,1.627-1.738,1.537
			c-1.205-0.045-1.816-0.937-1.816-2.664v-31.595c0-1.024,0.57-1.508,1.711-1.462c1.23,0,1.848,0.843,1.848,2.527L411.426,246.49
			L411.426,246.49z"/>
		<path d="M455.752,249.671c0.105-1.102,0.16-2.35,0.16-3.779v-31.524c0-4.932-1.178-7.554-3.117-8.888
			c-1.564-1.021-4.979-2.042-10.672-2.042c-6.014,0-9.104,1.15-10.719,2.415c-1.605,1.266-3.133,3.758-3.133,8.515v31.522
			c0,3.959,1.104,5.691,2.283,7.271c1.188,1.578,3.277,3.1,7.311,3.32l8.811,0.002l5.592-0.646l3.352,3.361l4.814-4.83
			L455.752,249.671z M444.045,246.49c0,1.07-0.637,1.67-1.922,1.807c-1.084-0.09-1.629-1.004-1.629-2.738v-31.856
			c0-1.07,0.566-1.598,1.703-1.598c1.277,0,1.895,0.844,1.848,2.53V246.49z"/>
		<path d="M58.876,208.988h-2.922v14.479l2.973,0.06c1.562,0.129,2.348-0.393,2.348-1.564v-10.467c0-1.001-0.12-1.661-0.367-1.974
			C60.66,209.211,59.988,209.031,58.876,208.988z"/>
		<path d="M58.876,229.451h-2.922v14.479l2.973,0.062c1.562,0.125,2.348-0.396,2.348-1.566v-10.467c0-1-0.12-1.663-0.367-1.975
			C60.66,229.674,59.988,229.492,58.876,229.451z"/>
		<path d="M88.884,260.472v-67.028c0-6.034-4.889-10.927-10.927-10.927H10.925C4.893,182.517,0,187.411,0,193.444v67.028
			c0,6.035,4.893,10.934,10.925,10.934h67.032c0.812,0,1.59-0.104,2.354-0.271l6.78,6.781l7.981-7.986l-6.609-6.612
			C88.705,262.404,88.884,261.462,88.884,260.472z M41.035,219h-8.062v-6.455c0-1.633-2.231-2.447-3.407-2.447
			c-0.952,0-3.07,0.837-3.07,2.513v28.822c0,0.84,0.139,1.455,0.408,1.854c0.27,0.397,2.522,0.575,3.067,0.532
			c1.039,0.084,3.002-0.438,3.002-1.572v-11.654h8.062v10.973c0,4.637-0.716,7.551-2.163,8.742c-1.44,1.191-3.339,1.764-8.796,1.723
			c-5.502-0.039-8.554-1.028-10-2.133c-1.441-1.113-2.565-3.633-2.565-8.397v-29.334c0-4.553,1.624-7.479,3.02-8.563
			c1.309-1.251,3.827-1.756,9.416-1.716c5.496,0.043,7.47,0.629,8.997,1.756c1.438,1.256,2.14,4.117,2.093,8.59L41.035,219
			L41.035,219z M71.378,217.555c0,4.306-1.668,6.833-5.014,7.585c2.082,0.711,3.452,1.752,4.097,3.132
			c0.566,1.044,0.854,2.756,0.854,5.137v8.09c0,4.725-0.896,7.715-2.674,8.967c-1.437,1.045-4.759,1.562-9.963,1.562H45.983v-50.145
			h12.564c5.21,0,8.557,0.525,10.028,1.567c1.865,1.253,2.801,4.203,2.801,8.839L71.378,217.555L71.378,217.555z"/>
	</g>
</g>
</svg>