<?xml version="1.0" encoding="iso-8859-1"?>
<!-- Uploaded to: SVG Repo, www.svgrepo.com, Generator: SVG Repo Mixer Tools -->
<!DOCTYPE svg PUBLIC "-//W3C//DTD SVG 1.1//EN" "http://www.w3.org/Graphics/SVG/1.1/DTD/svg11.dtd">
<svg fill="#000000" version="1.1" id="Capa_1" xmlns="http://www.w3.org/2000/svg" xmlns:xlink="http://www.w3.org/1999/xlink" 
	 width="800px" height="800px" viewBox="0 0 556.314 556.314"
	 xml:space="preserve">
<g>
	<g>
		<path d="M0,305.06v-18.285h9.359v1.765c0.332,2.496,1.684,4.546,4.047,6.163c2.37,1.617,5.168,2.426,8.4,2.426
			c3.377,0,6.07-0.582,8.094-1.761c2.02-1.183,3.028-2.812,3.028-4.903c0-2.021-0.837-3.509-2.507-4.461
			c-1.674-0.953-4.982-1.836-9.941-2.637c-7.344-1.241-12.584-3.242-15.719-6.02c-3.139-2.772-4.706-6.365-4.706-10.771
			c0-4.442,1.71-8.164,5.12-11.155c3.415-2.995,7.912-4.49,13.488-4.49c5.029,0,9.364,1.03,12.994,3.102v-2.278h9.309v17.68h-9.309
			v-3.26c-2.823-4.361-6.935-6.547-12.333-6.547c-2.747,0-5.019,0.602-6.798,1.79c-1.783,1.193-2.67,2.777-2.67,4.757
			c0,2.026,0.816,3.415,2.452,4.161c1.632,0.757,5.146,1.555,10.542,2.393c5.177,0.802,9.088,1.75,11.728,2.829
			c2.646,1.085,4.837,2.884,6.58,5.398c1.743,2.519,2.618,5.446,2.618,8.791c0,4.952-1.9,8.894-5.701,11.813
			c-3.798,2.922-8.726,4.38-14.785,4.38c-5.69,0-10.336-1.292-13.932-3.882v3.002H0L0,305.06z"/>
		<path d="M52.59,319.646v-58.59h-8.973v-9.302h19.436v8.371c5.214-6.134,11.524-9.194,18.94-9.194
			c7.487,0,13.685,2.569,18.585,7.702c4.9,5.147,7.35,11.828,7.35,20.05c0,8.623-2.658,15.437-7.982,20.425
			c-5.323,4.991-11.379,7.487-18.174,7.487c-7.043,0-13.285-2.713-18.719-8.146v21.193h10.35v9.307H42.845v-9.307h9.745V319.646z
			 M65.645,279.16c0,2.851,0.587,5.583,1.766,8.179c1.174,2.607,3.048,4.793,5.616,6.555c2.565,1.771,5.579,2.652,9.035,2.652
			c4.853,0,8.854-1.625,12.011-4.867c3.151-3.246,4.729-7.707,4.729-13.375c0-5.521-1.648-9.837-4.946-12.938
			c-3.299-3.102-7.051-4.649-11.26-4.649c-4.492,0-8.439,1.681-11.843,5.048C67.345,269.127,65.645,273.599,65.645,279.16z"/>
		<path d="M129.289,304.118l-17.512-43.063h-8.86v-9.302h26.372v9.302h-6.388l11.51,29.515l11.284-29.515h-7.047v-9.302h25.827
			v9.302h-7.931l-26.375,67.895h-17.672v-9.139H122.9L129.289,304.118z"/>
		<path d="M171.462,295.751v-34.696h-10.733v-9.302h19.102v12.005c1.182-3.12,2.813-5.709,4.907-7.762
			c2.088-2.061,4.3-3.416,6.632-4.077c2.334-0.664,5.515-0.989,9.555-0.989h2.752v10.567h-2.094c-5.32,0-9.297,0.532-11.923,1.596
			c-2.622,1.067-4.567,2.998-5.834,5.813c-1.267,2.81-1.9,7.85-1.9,15.112v11.729h11.619v9.312H160.73v-9.312L171.462,295.751
			L171.462,295.751z"/>
		<path d="M252.899,281.052h-44.82c0.66,4.914,2.606,8.896,5.834,11.948c3.23,3.046,7.359,4.563,12.393,4.563
			c7.304,0,13.084-2.937,17.342-8.807l9.252,4.073c-3.01,4.663-6.92,8.123-11.729,10.381c-4.811,2.255-9.836,3.384-15.088,3.384
			c-8.146,0-15.115-2.537-20.892-7.625c-5.784-5.084-8.678-11.938-8.678-20.566c0-8.183,2.817-14.922,8.456-20.206
			c5.631-5.287,12.101-7.928,19.408-7.928c7.156,0,13.644,2.581,19.463,7.736C249.66,263.16,252.677,270.841,252.899,281.052z
			 M242.105,273.444c-0.733-3.741-2.679-7.127-5.838-10.155c-3.157-3.031-7.024-4.545-11.618-4.545
			c-4.182,0-7.764,1.377-10.736,4.103c-2.971,2.735-4.789,6.27-5.45,10.598L242.105,273.444L242.105,273.444z"/>
		<path d="M254.489,305.06v-18.285h9.362v1.765c0.331,2.496,1.683,4.546,4.046,6.163c2.37,1.617,5.165,2.426,8.4,2.426
			c3.375,0,6.072-0.582,8.089-1.761c2.021-1.183,3.031-2.812,3.031-4.903c0-2.021-0.838-3.509-2.504-4.461
			c-1.674-0.953-4.987-1.836-9.948-2.637c-7.341-1.241-12.577-3.242-15.716-6.02c-3.139-2.772-4.708-6.365-4.708-10.771
			c0-4.442,1.704-8.164,5.125-11.155c3.41-2.995,7.91-4.49,13.485-4.49c5.032,0,9.364,1.03,13,3.102v-2.278h9.305v17.68h-9.305
			v-3.26c-2.832-4.361-6.94-6.547-12.34-6.547c-2.749,0-5.021,0.602-6.797,1.79c-1.784,1.193-2.67,2.777-2.67,4.757
			c0,2.026,0.814,3.415,2.45,4.161c1.632,0.757,5.148,1.555,10.546,2.393c5.174,0.802,9.083,1.75,11.727,2.829
			c2.641,1.085,4.838,2.884,6.574,5.398c1.744,2.519,2.617,5.446,2.617,8.791c0,4.952-1.896,8.894-5.695,11.813
			c-3.801,2.922-8.729,4.38-14.781,4.38c-5.693,0-10.335-1.292-13.935-3.882v3.002H254.489L254.489,305.06z"/>
		<path d="M321.943,261.055v-9.302h-9.857v-17.786l-10.459,9.582v8.205v9.302v26.435c0,5.214,0.258,8.881,0.77,11.012
			c0.52,2.135,1.764,3.899,3.748,5.313s4.57,2.123,7.764,2.123c2.688,0,5.359-0.479,8.039-1.429v-9.531
			c-1.869,0.734-3.775,1.101-5.729,1.101c-1.838,0-2.979-0.479-3.441-1.458c-0.451-0.968-0.688-3.525-0.688-7.681v-25.886H321.943
			L321.943,261.055z"/>
		<path d="M369.006,295.751v-43.997h-10.512l0.057,38.159c-5.502,4.623-10.688,6.936-15.529,6.936c-1.611,0-2.955-0.437-4.018-1.315
			c-1.066-0.879-1.711-2.002-1.932-3.354c-0.225-1.358-0.332-4-0.332-7.935v-32.49h-10.447v9.302h-0.012v24.507
			c0,5.506,0.391,9.494,1.16,11.976c0.768,2.478,2.314,4.497,4.648,6.06c2.33,1.559,5.273,2.345,8.84,2.345
			c5.607,0,11.49-2.33,17.617-6.99v6.108h10.521v-9.309h-0.066L369.006,295.751L369.006,295.751z"/>
		<path d="M429.752,295.751v9.309H419.23v-7.816c-5.219,5.801-11.559,8.699-19.043,8.699c-6.949,0-13.029-2.37-18.287-7.112
			c-5.256-4.729-7.865-11.469-7.865-20.2c0-8.773,2.689-15.693,8.084-20.761c5.404-5.066,11.492-7.596,18.287-7.596
			c7.199,0,13.473,2.858,18.824,8.589v-21.088h-0.041v-9.313h10.514v67.29H429.752L429.752,295.751z M384.824,278.351
			c0,5.479,1.555,9.689,4.66,12.64c3.086,2.941,6.803,4.424,11.117,4.424c4.186,0,7.885-1.555,11.125-4.66
			c3.234-3.095,4.859-7.389,4.859-12.869c0-5.521-1.646-9.682-4.959-12.491c-3.312-2.812-7.012-4.214-11.139-4.214
			c-4.412,0-8.123,1.654-11.146,4.952C386.332,269.445,384.824,273.513,384.824,278.351z"/>
		<path d="M436.723,295.751v-34.696l0,0v-9.302h10.465v43.997h8.271v9.31h-18.686v-9.31L436.723,295.751L436.723,295.751z
			 M435.236,233.641c0-1.694,0.602-3.16,1.795-4.408c1.188-1.249,2.695-1.869,4.539-1.869c1.727,0,3.213,0.603,4.465,1.817
			c1.25,1.211,1.863,2.691,1.863,4.46c0,1.762-0.613,3.257-1.863,4.479c-1.252,1.233-2.738,1.85-4.465,1.85
			c-1.762,0-3.252-0.627-4.48-1.872C435.85,236.854,435.236,235.362,435.236,233.641z"/>
		<path d="M454.785,278.403c0-8.224,2.715-14.974,8.143-20.231c5.436-5.27,12.064-7.902,19.883-7.902
			c7.678,0,14.266,2.592,19.768,7.787c5.516,5.196,8.262,11.979,8.262,20.347c0,8.371-2.734,15.161-8.236,20.372
			c-5.482,5.217-12.07,7.82-19.789,7.82c-7.926,0-14.586-2.641-19.963-7.932C457.471,293.384,454.785,286.623,454.785,278.403z
			 M466.982,278.373c0,4.915,1.523,8.94,4.602,12.071c3.064,3.139,6.812,4.712,11.227,4.712c4.484,0,8.242-1.592,11.279-4.765
			c3.039-3.168,4.549-7.17,4.549-12.021c0-4.87-1.535-8.888-4.631-12.037c-3.072-3.157-6.812-4.734-11.197-4.734
			c-4.592,0-8.377,1.61-11.354,4.838C468.471,269.663,466.982,273.639,466.982,278.373z"/>
		<path d="M512.535,305.06v-18.285h9.369v1.765c0.326,2.496,1.678,4.546,4.045,6.163c2.363,1.617,5.17,2.426,8.4,2.426
			c3.373,0,6.068-0.582,8.084-1.761c2.023-1.183,3.033-2.812,3.033-4.903c0-2.021-0.844-3.509-2.508-4.461
			c-1.67-0.953-4.979-1.836-9.938-2.637c-7.354-1.241-12.59-3.242-15.725-6.02c-3.145-2.772-4.711-6.365-4.711-10.771
			c0-4.442,1.719-8.164,5.117-11.155c3.422-2.995,7.914-4.49,13.49-4.49c5.037,0,9.369,1.03,13.002,3.102v-2.278h9.303v17.68h-9.303
			v-3.26c-2.828-4.361-6.941-6.547-12.33-6.547c-2.754,0-5.025,0.602-6.812,1.79c-1.777,1.193-2.668,2.777-2.668,4.757
			c0,2.026,0.818,3.415,2.447,4.161c1.637,0.757,5.146,1.555,10.555,2.393c5.176,0.802,9.082,1.75,11.723,2.829
			c2.641,1.085,4.83,2.884,6.574,5.398c1.744,2.519,2.631,5.446,2.631,8.791c0,4.952-1.904,8.894-5.705,11.813
			c-3.799,2.922-8.729,4.38-14.785,4.38c-5.691,0-10.332-1.292-13.928-3.882v3.002H512.535L512.535,305.06z"/>
	</g>
</g>
</svg>