<?xml version="1.0" encoding="iso-8859-1"?>
<!-- Uploaded to: SVG Repo, www.svgrepo.com, Generator: SVG Repo Mixer Tools -->
<!DOCTYPE svg PUBLIC "-//W3C//DTD SVG 1.1//EN" "http://www.w3.org/Graphics/SVG/1.1/DTD/svg11.dtd">
<svg fill="#000000" version="1.1" id="Capa_1" xmlns="http://www.w3.org/2000/svg" xmlns:xlink="http://www.w3.org/1999/xlink" 
	 width="800px" height="800px" viewBox="0 0 448.578 448.578"
	 xml:space="preserve">
<g>
	<g>
		<path d="M106.552,263.834l0.005-7.979l-24.832-33.729l22.648-25.516h9.729v-10.65H99.594l-24.33,27.403l-12.019-16.328v-12.29
			c9.185-2.82,15.923-11.276,15.923-21.367c0-12.385-10.077-22.458-22.459-22.458c-12.379,0-22.457,10.072-22.457,22.458
			c0,10.091,6.738,18.547,15.919,21.367v16.576l16.225,22.03L46.54,245.714l-2.978-0.023c-3.067-8.75-11.322-15.084-21.112-15.084
			C10.067,230.606,0,240.683,0,253.063c0,12.386,10.067,22.455,22.45,22.455c11.256,0,20.514-8.354,22.123-19.166l6.717,0.062
			l21.562-24.293l20.632,28.022v3.691c-9.176,2.812-15.914,11.27-15.914,21.367c0,12.385,10.063,22.457,22.452,22.457
			c12.383,0,22.455-10.072,22.455-22.457C122.475,275.108,115.737,266.656,106.552,263.834z M44.059,163.376
			c0-6.978,5.671-12.649,12.649-12.649c6.977,0,12.649,5.672,12.649,12.649c0,6.973-5.672,12.649-12.649,12.649
			C49.729,176.025,44.059,170.349,44.059,163.376z M22.448,265.711c-6.972,0-12.649-5.676-12.649-12.651
			c0-6.975,5.677-12.646,12.649-12.646c6.973,0,12.649,5.672,12.649,12.646C35.097,260.035,29.42,265.711,22.448,265.711z
			 M100.019,297.854c-6.973,0-12.649-5.678-12.649-12.653c0-6.974,5.676-12.647,12.649-12.647c6.971,0,12.649,5.676,12.649,12.647
			C112.668,292.179,106.991,297.854,100.019,297.854z"/>
		<path d="M63.71,163.376c0-3.87-3.13-7.003-7.003-7.003c-3.87,0-7.004,3.133-7.004,7.003c0,3.866,3.135,6.999,7.004,6.999
			C60.581,170.374,63.71,167.241,63.71,163.376z"/>
		<circle cx="22.448" cy="253.058" r="7.002"/>
		<path d="M100.024,278.199c-3.875,0-7.01,3.135-7.01,7.002c0,3.866,3.135,7,7.01,7c3.867,0,6.998-3.134,6.998-7
			C107.022,281.334,103.893,278.199,100.024,278.199z"/>
		<path d="M258.119,207.205h45.473v21.658h-53.783h-47.31v-37.581h-9.801v37.581h-8.884v-31.458H128.54v9.8h45.473v21.658H120.23
			v38.666h63.584v-28.865h8.884v28.865h43.274v-9.804h-33.477v-19.062h47.309v28.865h63.592v-70.124h-55.277V207.205z
			 M174.015,257.728h-43.982v-19.062h43.982V257.728z M303.592,257.728h-43.979v-19.062h43.979V257.728z"/>
		<path d="M393.295,197.405v9.8h45.484v21.658H384.99v38.666h63.588v-70.124H393.295L393.295,197.405z M438.779,257.728h-43.984
			v-19.062h43.984V257.728z"/>
		<polygon points="367.898,206.785 358.098,206.785 358.098,228.435 332.568,228.435 332.568,187.993 322.762,187.993 
			322.762,267.647 332.568,267.647 332.568,238.235 368.021,238.235 368.021,267.647 377.828,267.647 377.828,228.435 
			367.898,228.435 		"/>
	</g>
</g>
</svg>