<svg xmlns="http://www.w3.org/2000/svg" xmlns:xlink="http://www.w3.org/1999/xlink" version="1.1" id="Layer_1" x="0px" y="0px" style="enable-background:new 0 0 4277.11 1360.34;" xml:space="preserve" viewBox="287.62 357.76 3818.31 858.59">
<style type="text/css">
	.st0{display:none;fill:#11113B;}
	.st1{fill:#FFFFFF;}
	.st2{display:none;fill:#11113B;stroke:#EA6C25;stroke-miterlimit:10;}
	.st3{fill:#11113B;}
	.st4{font-size:532.4917px;}
	.st5{fill:#EA6C25;}
	.st6{fill:#221F1F;}
	.st7{fill:none;stroke:url(#SVGID_1_);stroke-width:3;stroke-miterlimit:10;}
	.st8{fill:#EB6B25;}
	.st9{fill:none;stroke:url(#SVGID_00000015336384852618628140000000974528451543505311_);stroke-width:3;stroke-miterlimit:10;}
	.st10{fill:none;stroke:url(#SVGID_00000135687812858107834840000017832816770860965769_);stroke-width:3;stroke-miterlimit:10;}
	.st11{fill:none;stroke:#231F20;stroke-width:0.25;stroke-miterlimit:10;}
	.st12{fill:none;stroke:#231F20;stroke-width:0.5;stroke-miterlimit:10;}
	.st13{fill:none;stroke:#231F20;stroke-miterlimit:10;}
</style>
<text transform="matrix(1 0 0 1 900.6467 964.3513)"><tspan x="0" y="0" class="st3 st4">Faecom</tspan><tspan x="1928.13" y="0" class="st5 st4">Tech</tspan></text>
<g>
	<g>
		<path class="st5" d="M589.25,879.36c44.6,0.96,84.31,16.27,118.5,47.58c28.57,26.17,47.77,58.89,58.07,97.72    c2.76,10.41,4.9,21.02,5.49,31.88c0.46,8.58-4.08,14.46-11.24,14.96c-7.43,0.52-12.57-4.77-13.48-13.35    c-3.5-33.18-15.07-62.76-34.65-88.54c-21.47-28.28-48.61-47.4-81.24-57.3c-19.14-5.8-38.63-7.03-58.37-5.35    c-8.75,0.74-14.46-5.21-14.06-14.09c0.26-5.89,4.27-10.9,9.72-11.85C575.01,879.79,582.07,878.94,589.25,879.36z"/>
		<path class="st5" d="M582.15,933.59c59.21-0.58,112.79,39.68,133.26,99.58c4.02,11.76,6.48,23.93,7.86,36.36    c0.72,6.48-3.83,13.12-9.68,14.41c-6.27,1.38-12.08-2.21-14.33-8.65c-1.8-5.14-1.47-10.65-2.64-15.93    c-10.36-46.52-36.73-77.43-78.21-93.19c-15.38-5.84-31.51-7.37-47.83-5.35c-6.25,0.78-12.21-3.99-13.24-10.36    c-1.25-7.68,2.44-14.06,9.2-15.79C572.01,933.28,577.62,933.75,582.15,933.59z"/>
		<path class="st5" d="M575.68,984.39c45.52-0.57,87.1,33.03,99.69,82.27c1.48,5.78,2.68,11.69,2.88,17.74    c0.24,7.4-4.12,13.29-10.33,14.15c-7.01,0.98-12.82-3.18-13.94-10.9c-2.01-13.84-5.46-27.07-12.99-38.63    c-18.04-27.65-42.7-40.4-74-37.57c-6.57,0.59-12.87-4.75-13.65-12.2c-0.76-7.24,4.98-14.28,12.31-14.83    C568.97,984.18,572.33,984.39,575.68,984.39z"/>
		<path class="st5" d="M630.48,1090.46c-0.03,7.31-4.82,13.07-11.14,13.63c-7.18,0.63-12.47-3.81-13.45-11.55    c-2.24-17.55-15.98-30.7-32.55-29.37c-7.67,0.62-12.25-2.82-14.29-9.6c-2.23-7.41,2.6-15.75,9.74-16.82    c27.62-4.15,54.42,16.23,60.41,45.93C629.72,1085.33,630.68,1087.89,630.48,1090.46z"/>
		<path class="st5" d="M567.03,1117.6c-8-0.05-14.61-7.24-14.57-15.84c0.04-8.69,6.64-15.68,14.74-15.63    c8.25,0.05,14.69,6.86,14.73,15.58C581.97,1110.51,575.28,1117.65,567.03,1117.6z"/>
	</g>
</g>
<g>
	<path class="st8" d="M374.52,596.98c0-45.54-0.23-88.79,0.16-132.04c0.1-10.83,0.89-21.99,3.61-32.41   c11.68-44.6,49.48-73.74,97.77-74.35c61.06-0.76,122.14-0.29,183.21-0.13c17.87,0.05,28.06,8.94,27.64,23.1   c-0.4,13.31-10.91,21.76-27.66,21.78c-60.16,0.08-120.32-0.02-180.47,0.06c-36.49,0.05-58.89,22.16-59.02,58.32   c-0.14,40.56-0.05,81.12-0.01,121.68c0,4.02,0.36,8.03,0.63,13.7c5.95,0,11.28,0,16.6,0c92.06,0.05,184.12,0.21,276.17,0.05   c12.67-0.02,22.86,3.15,26.54,16.33c4.29,15.4-6.64,27.95-24.3,28.01c-48.31,0.18-96.62,0.07-144.92,0.07   c-85.22,0-170.45,0-255.67-0.01c-2.28,0-4.58,0.14-6.83-0.1c-12.32-1.28-20.69-10.85-20.34-23.12   c0.33-11.64,8.58-20.55,20.86-20.83C329.8,596.63,351.13,596.98,374.52,596.98z"/>
	<path class="st8" d="M535.56,909.21c-0.01,61.48,0.09,122.96-0.08,184.44c-0.04,14.96-8.69,23.82-22.1,23.88   c-13.34,0.06-21.63-8.89-22.17-23.93c-0.03-0.91-0.01-1.82-0.01-2.73c0-121.59-0.02-243.19,0.02-364.78   c0.01-17.4,7.83-27.21,21.53-27.51c14.32-0.32,22.78,9.73,22.8,27.56C535.61,787.16,535.57,848.18,535.56,909.21z"/>
	<path class="st8" d="M419.72,782.77c0,23.24,0.13,46.48-0.04,69.72c-0.12,16.88-8.59,26.69-22.54,26.72   c-13.44,0.02-22.3-9.1-22.43-25.37c-0.39-47.84-0.38-95.69,0.03-143.53c0.13-14.84,9.74-24.3,22.41-24.3   c12.97,0,22.33,10.32,22.5,25.67C419.9,735.37,419.71,759.07,419.72,782.77z"/>
</g>
</svg>