<svg id="svg" version="1.1" xmlns="http://www.w3.org/2000/svg" xmlns:xlink="http://www.w3.org/1999/xlink" width="400" height="400" viewBox="0, 0, 400,400"><g id="svgg"><path id="path0" d="M154.250 4.672 C 144.543 4.744,138.013 4.858,137.083 4.972 C 136.258 5.074,135.208 5.192,134.750 5.235 C 134.031 5.302,131.916 5.620,131.417 5.736 C 131.325 5.757,130.800 5.867,130.250 5.979 C 118.978 8.280,108.454 14.387,101.496 22.667 C 100.995 23.262,100.547 23.787,100.501 23.833 C 100.362 23.970,99.447 25.199,98.914 25.964 C 93.055 34.373,89.811 43.735,89.236 53.892 C 89.189 54.731,89.112 55.679,89.067 56.000 C 89.021 56.321,88.939 72.720,88.886 92.443 L 88.788 128.304 71.352 128.385 C 61.763 128.429,53.684 128.508,53.399 128.560 C 48.036 129.537,44.596 133.087,44.009 138.251 C 43.297 144.515,47.090 149.780,53.250 151.078 C 55.261 151.502,265.926 151.437,268.250 151.012 C 270.570 150.587,270.764 150.528,272.383 149.754 C 281.087 145.594,280.518 132.802,271.475 129.336 C 268.642 128.250,275.415 128.333,189.822 128.333 L 112.703 128.333 112.604 125.125 C 112.422 119.217,112.336 76.217,112.483 64.750 C 112.651 51.677,112.683 51.350,114.271 46.500 C 115.121 43.906,117.199 39.901,118.163 39.000 C 118.212 38.954,118.467 38.617,118.729 38.250 C 122.107 33.531,128.774 29.869,136.542 28.465 L 138.583 28.097 188.833 28.002 C 216.471 27.950,239.308 27.852,239.583 27.785 C 239.858 27.718,240.632 27.545,241.302 27.401 C 247.723 26.021,251.458 20.942,250.676 14.654 C 249.925 8.619,245.119 5.074,237.253 4.753 C 233.804 4.612,170.685 4.551,154.250 4.672 M98.917 174.606 C 97.728 174.793,95.672 175.534,94.716 176.118 C 91.808 177.896,90.177 180.364,89.234 184.417 C 88.764 186.435,88.755 262.682,89.224 264.500 C 89.284 264.729,89.380 265.179,89.439 265.500 C 89.922 268.147,91.849 271.228,93.883 272.607 C 94.268 272.869,94.629 273.145,94.685 273.222 C 94.741 273.299,94.834 273.359,94.891 273.355 C 94.947 273.351,95.271 273.463,95.609 273.605 C 102.201 276.359,109.223 273.398,111.438 266.930 C 112.479 263.890,112.417 266.581,112.414 224.417 L 112.410 186.083 112.050 184.500 C 110.499 177.691,105.108 173.630,98.917 174.606 M158.750 181.172 C 155.652 181.649,153.180 183.270,151.534 185.904 C 151.194 186.447,150.910 186.935,150.903 186.987 C 150.895 187.040,150.812 187.271,150.718 187.500 C 150.624 187.729,150.396 188.367,150.211 188.917 C 149.368 191.426,149.417 185.238,149.417 290.000 L 149.417 387.750 149.793 389.227 C 151.140 394.513,154.589 397.520,159.761 397.918 C 162.927 398.162,166.621 397.137,168.276 395.556 C 168.484 395.357,168.793 395.094,168.962 394.972 C 170.233 394.056,171.733 390.938,172.155 388.333 C 172.380 386.949,172.395 193.607,172.171 192.000 C 172.003 190.796,171.984 190.703,171.585 189.167 C 171.430 188.571,171.244 188.008,171.172 187.917 C 171.100 187.825,170.987 187.563,170.920 187.333 C 169.750 183.292,163.974 180.367,158.750 181.172 M196.250 274.620 C 194.618 274.688,189.950 275.302,188.750 275.606 C 183.125 277.031,182.318 285.835,187.583 288.326 C 188.962 288.978,189.653 289.017,194.917 288.741 C 203.826 288.273,215.210 289.427,220.000 291.283 C 220.137 291.336,220.362 291.398,220.500 291.421 C 221.538 291.591,226.302 293.248,229.583 294.580 C 235.103 296.822,242.608 301.158,247.179 304.746 C 249.502 306.569,249.705 306.732,250.238 307.201 C 250.519 307.448,251.159 308.011,251.659 308.451 C 254.708 311.131,257.962 314.456,260.500 317.483 C 260.912 317.974,261.327 318.461,261.421 318.563 C 261.515 318.666,261.965 319.237,262.421 319.833 C 262.877 320.429,263.288 320.954,263.334 321.000 C 265.103 322.751,271.239 332.745,273.158 337.000 C 273.509 337.779,273.988 338.829,274.221 339.333 C 275.353 341.782,277.090 346.522,278.315 350.511 C 279.516 354.420,281.006 361.938,281.500 366.583 C 281.798 369.388,282.861 371.934,284.061 372.720 C 284.277 372.861,284.558 373.081,284.685 373.209 C 286.808 375.332,292.173 373.879,293.652 370.781 C 296.588 364.629,289.761 338.419,281.692 324.868 C 281.403 324.382,281.167 323.950,281.167 323.906 C 281.167 323.821,279.858 321.608,279.251 320.667 C 278.199 319.037,275.579 315.062,275.461 314.917 C 275.386 314.825,274.676 313.887,273.883 312.833 C 268.384 305.525,261.501 298.659,254.167 293.167 C 251.262 290.992,249.634 289.863,247.417 288.485 C 246.500 287.915,245.487 287.281,245.167 287.076 C 243.014 285.698,237.225 282.831,233.687 281.390 C 227.285 278.783,218.680 276.426,213.083 275.746 C 212.625 275.690,211.875 275.575,211.417 275.491 C 208.961 275.039,199.391 274.489,196.250 274.620 M191.083 302.839 C 190.258 302.922,189.471 303.015,189.333 303.048 C 189.196 303.080,188.821 303.167,188.500 303.242 C 181.975 304.761,181.724 314.819,188.167 316.610 C 189.093 316.868,189.429 316.873,191.967 316.666 C 199.841 316.026,206.695 316.734,213.000 318.838 C 216.485 320.002,224.000 323.318,224.000 323.693 C 224.000 323.770,224.085 323.833,224.189 323.833 C 224.481 323.833,227.253 325.448,228.890 326.572 C 231.089 328.081,231.079 328.074,231.139 328.208 C 231.169 328.277,231.263 328.333,231.346 328.333 C 231.477 328.333,231.887 328.642,232.564 329.251 C 232.666 329.343,233.144 329.715,233.625 330.077 C 234.106 330.439,234.500 330.795,234.500 330.868 C 234.500 330.940,234.570 331.000,234.656 331.000 C 235.220 331.000,240.873 336.859,243.098 339.750 C 244.103 341.055,245.333 342.837,245.333 342.987 C 245.333 343.070,245.390 343.164,245.458 343.194 C 246.092 343.476,250.819 352.312,251.418 354.333 C 251.485 354.563,251.597 354.825,251.665 354.917 C 251.734 355.008,251.884 355.383,252.000 355.750 C 252.116 356.117,252.266 356.492,252.335 356.583 C 253.144 357.663,255.689 367.263,256.091 370.750 C 256.734 376.329,257.554 378.246,259.958 379.783 C 260.920 380.399,262.739 380.882,263.583 380.747 C 263.858 380.703,264.295 380.633,264.554 380.592 C 266.719 380.249,269.051 377.602,269.504 374.975 C 269.715 373.750,269.652 373.007,268.923 368.167 C 266.158 349.808,256.942 332.768,243.167 320.546 C 241.340 318.925,241.108 318.731,239.914 317.834 C 239.365 317.421,238.879 317.046,238.833 316.999 C 238.572 316.734,236.654 315.392,234.917 314.258 C 233.817 313.541,232.654 312.782,232.333 312.571 C 226.927 309.031,217.254 305.362,209.316 303.841 C 204.515 302.921,195.316 302.416,191.083 302.839 M186.500 329.320 C 178.738 331.768,180.579 343.377,188.667 342.985 C 194.915 342.683,199.522 343.105,204.083 344.397 C 204.175 344.423,204.578 344.537,204.978 344.650 C 205.739 344.866,207.745 345.658,209.362 346.381 C 213.935 348.425,219.971 353.302,223.331 357.667 C 223.648 358.079,223.948 358.454,223.997 358.500 C 224.440 358.918,226.766 362.291,227.788 364.000 C 230.146 367.942,232.231 374.083,233.165 379.833 C 233.871 384.182,234.204 385.142,235.438 386.394 C 238.509 389.509,243.731 388.510,245.589 384.451 C 247.975 379.239,243.173 362.579,236.524 353.000 C 234.939 350.718,235.080 350.908,233.639 349.083 C 225.445 338.701,213.595 331.591,201.167 329.600 C 197.027 328.936,188.247 328.769,186.500 329.320 M190.066 356.066 C 184.129 357.032,182.106 364.284,186.636 368.358 C 187.950 369.539,189.069 369.833,192.247 369.833 C 200.901 369.833,206.989 375.317,208.649 384.607 C 209.414 388.894,211.223 390.800,214.676 390.962 C 219.375 391.181,222.351 387.157,221.329 381.964 C 220.784 379.191,219.995 376.230,219.498 375.083 C 219.418 374.900,219.080 374.113,218.746 373.333 C 213.848 361.912,201.144 354.264,190.066 356.066 M187.248 381.836 C 179.902 383.297,178.870 394.138,185.770 397.367 C 187.463 398.160,192.167 397.982,192.167 397.125 C 192.167 397.056,192.236 397.000,192.322 397.000 C 192.644 397.000,193.616 396.230,194.316 395.422 C 199.335 389.620,194.532 380.388,187.248 381.836 " stroke="none" fill="#ec6c24" fill-rule="evenodd"></path><path id="path1" d="M154.292 4.625 C 157.156 4.650,161.844 4.650,164.708 4.625 C 167.573 4.599,165.229 4.578,159.500 4.578 C 153.771 4.578,151.427 4.599,154.292 4.625 M203.388 4.625 C 208.505 4.649,216.830 4.649,221.888 4.625 C 226.945 4.600,222.758 4.580,212.583 4.580 C 202.408 4.580,198.270 4.601,203.388 4.625 M140.792 4.790 C 141.273 4.823,142.060 4.823,142.542 4.790 C 143.023 4.756,142.629 4.728,141.667 4.728 C 140.704 4.728,140.310 4.756,140.792 4.790 M135.460 5.118 C 135.668 5.158,135.968 5.156,136.127 5.115 C 136.286 5.073,136.117 5.040,135.750 5.042 C 135.383 5.044,135.253 5.078,135.460 5.118 M244.500 6.241 C 244.500 6.287,244.725 6.441,245.000 6.583 C 245.275 6.726,245.500 6.804,245.500 6.759 C 245.500 6.713,245.275 6.559,245.000 6.417 C 244.725 6.274,244.500 6.196,244.500 6.241 M109.160 15.345 L 108.583 15.857 109.208 15.409 C 109.761 15.013,109.940 14.833,109.785 14.833 C 109.759 14.833,109.478 15.064,109.160 15.345 M247.573 24.208 L 247.083 24.750 247.625 24.260 C 248.130 23.804,248.243 23.667,248.115 23.667 C 248.086 23.667,247.842 23.910,247.573 24.208 M140.460 28.118 C 140.668 28.158,140.968 28.156,141.127 28.115 C 141.286 28.073,141.117 28.040,140.750 28.042 C 140.383 28.044,140.253 28.078,140.460 28.118 M138.460 28.285 C 138.668 28.324,138.968 28.323,139.127 28.281 C 139.286 28.239,139.117 28.207,138.750 28.209 C 138.383 28.211,138.253 28.245,138.460 28.285 M126.612 128.292 C 134.328 128.316,147.003 128.316,154.778 128.292 C 162.554 128.268,156.242 128.248,140.750 128.248 C 125.258 128.248,118.896 128.268,126.612 128.292 M259.042 128.291 C 260.210 128.320,262.123 128.320,263.292 128.291 C 264.460 128.263,263.504 128.239,261.167 128.239 C 258.829 128.239,257.873 128.263,259.042 128.291 M55.208 128.456 C 55.644 128.490,56.356 128.490,56.792 128.456 C 57.227 128.422,56.871 128.393,56.000 128.393 C 55.129 128.393,54.773 128.422,55.208 128.456 M47.073 131.542 L 46.583 132.083 47.125 131.594 C 47.630 131.138,47.743 131.000,47.615 131.000 C 47.586 131.000,47.342 131.244,47.073 131.542 M274.667 131.052 C 274.667 131.081,274.910 131.325,275.208 131.594 L 275.750 132.083 275.260 131.542 C 274.804 131.037,274.667 130.923,274.667 131.052 M264.042 151.289 C 264.477 151.324,265.190 151.324,265.625 151.289 C 266.060 151.255,265.704 151.227,264.833 151.227 C 263.962 151.227,263.606 151.255,264.042 151.289 M100.375 174.448 C 100.535 174.490,100.798 174.490,100.958 174.448 C 101.119 174.406,100.987 174.372,100.667 174.372 C 100.346 174.372,100.215 174.406,100.375 174.448 M105.181 175.395 C 105.352 175.549,106.333 176.000,106.333 175.925 C 106.333 175.829,105.409 175.333,105.230 175.333 C 105.165 175.333,105.142 175.361,105.181 175.395 M92.742 177.542 L 92.083 178.250 92.792 177.591 C 93.450 176.978,93.577 176.833,93.450 176.833 C 93.423 176.833,93.105 177.152,92.742 177.542 M158.875 181.115 C 159.035 181.157,159.298 181.157,159.458 181.115 C 159.619 181.073,159.487 181.039,159.167 181.039 C 158.846 181.039,158.715 181.073,158.875 181.115 M168.326 183.708 C 168.735 184.144,169.091 184.500,169.118 184.500 C 169.243 184.500,169.111 184.350,168.375 183.660 L 167.583 182.917 168.326 183.708 M99.797 274.623 C 100.282 274.657,101.032 274.656,101.464 274.622 C 101.896 274.588,101.500 274.560,100.583 274.561 C 99.667 274.561,99.313 274.589,99.797 274.623 M196.211 274.620 C 196.464 274.658,196.839 274.657,197.044 274.617 C 197.249 274.578,197.042 274.546,196.583 274.548 C 196.125 274.549,195.957 274.581,196.211 274.620 M199.461 274.621 C 199.761 274.658,200.211 274.657,200.461 274.619 C 200.712 274.581,200.467 274.551,199.917 274.552 C 199.367 274.553,199.162 274.584,199.461 274.621 M203.960 274.785 C 204.168 274.824,204.468 274.823,204.627 274.781 C 204.786 274.739,204.617 274.707,204.250 274.709 C 203.883 274.711,203.753 274.745,203.960 274.785 M192.375 274.948 C 192.535 274.990,192.798 274.990,192.958 274.948 C 193.119 274.906,192.987 274.872,192.667 274.872 C 192.346 274.872,192.215 274.906,192.375 274.948 M206.044 274.953 C 206.297 274.991,206.672 274.990,206.877 274.951 C 207.082 274.911,206.875 274.880,206.417 274.881 C 205.958 274.882,205.791 274.915,206.044 274.953 M191.042 275.115 C 191.202 275.157,191.465 275.157,191.625 275.115 C 191.785 275.073,191.654 275.039,191.333 275.039 C 191.012 275.039,190.881 275.073,191.042 275.115 M207.958 275.118 C 208.165 275.157,208.502 275.157,208.708 275.118 C 208.915 275.078,208.746 275.045,208.333 275.045 C 207.921 275.045,207.752 275.078,207.958 275.118 M241.000 284.741 C 241.000 284.787,241.225 284.941,241.500 285.083 C 241.775 285.226,242.000 285.304,242.000 285.259 C 242.000 285.213,241.775 285.059,241.500 284.917 C 241.225 284.774,241.000 284.696,241.000 284.741 M198.797 288.623 C 199.282 288.657,200.032 288.656,200.464 288.622 C 200.896 288.588,200.500 288.560,199.583 288.561 C 198.667 288.561,198.313 288.589,198.797 288.623 M194.960 288.785 C 195.168 288.824,195.468 288.823,195.627 288.781 C 195.786 288.739,195.617 288.707,195.250 288.709 C 194.883 288.711,194.753 288.745,194.960 288.785 M203.458 288.784 C 203.665 288.824,204.002 288.824,204.208 288.784 C 204.415 288.745,204.246 288.712,203.833 288.712 C 203.421 288.712,203.252 288.745,203.458 288.784 M261.750 299.500 C 262.108 299.867,262.438 300.167,262.484 300.167 C 262.530 300.167,262.275 299.867,261.917 299.500 C 261.559 299.133,261.228 298.833,261.182 298.833 C 261.137 298.833,261.392 299.133,261.750 299.500 M191.627 302.785 C 191.834 302.824,192.134 302.823,192.294 302.781 C 192.453 302.739,192.283 302.707,191.917 302.709 C 191.550 302.711,191.420 302.745,191.627 302.785 M199.792 302.784 C 199.998 302.824,200.335 302.824,200.542 302.784 C 200.748 302.745,200.579 302.712,200.167 302.712 C 199.754 302.712,199.585 302.745,199.792 302.784 M204.208 303.115 C 204.369 303.157,204.631 303.157,204.792 303.115 C 204.952 303.073,204.821 303.039,204.500 303.039 C 204.179 303.039,204.048 303.073,204.208 303.115 M205.708 303.282 C 205.869 303.323,206.131 303.323,206.292 303.282 C 206.452 303.240,206.321 303.205,206.000 303.205 C 205.679 303.205,205.548 303.240,205.708 303.282 M267.583 305.333 C 267.941 305.700,268.272 306.000,268.318 306.000 C 268.363 306.000,268.108 305.700,267.750 305.333 C 267.392 304.967,267.062 304.667,267.016 304.667 C 266.970 304.667,267.225 304.967,267.583 305.333 M228.167 310.241 C 228.167 310.287,228.392 310.441,228.667 310.583 C 228.942 310.726,229.167 310.804,229.167 310.759 C 229.167 310.713,228.942 310.559,228.667 310.417 C 228.392 310.274,228.167 310.196,228.167 310.241 M197.125 316.451 C 197.331 316.491,197.669 316.491,197.875 316.451 C 198.081 316.411,197.912 316.379,197.500 316.379 C 197.088 316.379,196.919 316.411,197.125 316.451 M189.375 316.953 C 189.627 316.991,190.040 316.991,190.292 316.953 C 190.544 316.915,190.338 316.883,189.833 316.883 C 189.329 316.883,189.123 316.915,189.375 316.953 M244.833 322.052 C 244.833 322.081,245.077 322.325,245.375 322.594 L 245.917 323.083 245.427 322.542 C 244.971 322.037,244.833 321.923,244.833 322.052 M248.167 325.417 C 248.665 325.921,249.109 326.333,249.155 326.333 C 249.201 326.333,248.831 325.921,248.333 325.417 C 247.835 324.912,247.391 324.500,247.345 324.500 C 247.299 324.500,247.669 324.912,248.167 325.417 M189.461 328.954 C 189.761 328.991,190.211 328.990,190.461 328.952 C 190.712 328.914,190.467 328.884,189.917 328.885 C 189.367 328.886,189.162 328.917,189.461 328.954 M198.460 329.285 C 198.668 329.324,198.968 329.323,199.127 329.281 C 199.286 329.239,199.117 329.207,198.750 329.209 C 198.383 329.211,198.253 329.245,198.460 329.285 M190.544 342.953 C 190.797 342.991,191.172 342.990,191.377 342.951 C 191.582 342.911,191.375 342.880,190.917 342.881 C 190.458 342.882,190.291 342.915,190.544 342.953 M194.458 342.951 C 194.665 342.991,195.002 342.991,195.208 342.951 C 195.415 342.911,195.246 342.879,194.833 342.879 C 194.421 342.879,194.252 342.911,194.458 342.951 M196.625 343.118 C 196.831 343.157,197.169 343.157,197.375 343.118 C 197.581 343.078,197.412 343.045,197.000 343.045 C 196.588 343.045,196.419 343.078,196.625 343.118 M229.333 344.250 C 229.924 344.846,230.445 345.333,230.490 345.333 C 230.536 345.333,230.091 344.846,229.500 344.250 C 228.909 343.654,228.389 343.167,228.343 343.167 C 228.297 343.167,228.743 343.654,229.333 344.250 M187.375 356.832 C 187.077 357.013,186.833 357.198,186.833 357.242 C 186.833 357.286,187.096 357.167,187.417 356.978 C 187.737 356.789,188.000 356.604,188.000 356.567 C 188.000 356.460,187.947 356.483,187.375 356.832 M186.250 368.167 C 186.608 368.533,186.938 368.833,186.984 368.833 C 187.030 368.833,186.775 368.533,186.417 368.167 C 186.059 367.800,185.728 367.500,185.682 367.500 C 185.637 367.500,185.892 367.800,186.250 368.167 M190.455 369.954 C 190.750 369.990,191.275 369.991,191.621 369.955 C 191.967 369.919,191.725 369.889,191.083 369.888 C 190.442 369.887,190.159 369.917,190.455 369.954 M194.375 369.948 C 194.535 369.990,194.798 369.990,194.958 369.948 C 195.119 369.906,194.987 369.872,194.667 369.872 C 194.346 369.872,194.215 369.906,194.375 369.948 M259.810 379.823 C 260.027 380.012,260.283 380.167,260.380 380.167 C 260.585 380.167,260.575 380.158,259.917 379.773 L 259.417 379.480 259.810 379.823 M183.324 383.958 L 182.750 384.583 183.375 384.009 C 183.719 383.693,184.000 383.412,184.000 383.384 C 184.000 383.257,183.859 383.377,183.324 383.958 M239.375 388.286 C 239.627 388.324,240.040 388.324,240.292 388.286 C 240.544 388.248,240.338 388.217,239.833 388.217 C 239.329 388.217,239.123 388.248,239.375 388.286 M214.711 391.120 C 214.964 391.158,215.339 391.157,215.544 391.117 C 215.749 391.078,215.542 391.046,215.083 391.048 C 214.625 391.049,214.457 391.081,214.711 391.120 M183.000 395.385 C 183.000 395.414,183.244 395.658,183.542 395.927 L 184.083 396.417 183.594 395.875 C 183.138 395.370,183.000 395.257,183.000 395.385 M188.460 398.118 C 188.668 398.158,188.968 398.156,189.127 398.115 C 189.286 398.073,189.117 398.040,188.750 398.042 C 188.383 398.044,188.253 398.078,188.460 398.118 " stroke="none" fill="#bc541c" fill-rule="evenodd"></path><path id="path2" d="" stroke="none" fill="#f06020" fill-rule="evenodd"></path><path id="path3" d="" stroke="none" fill="#f06020" fill-rule="evenodd"></path><path id="path4" d="" stroke="none" fill="#f06020" fill-rule="evenodd"></path></g></svg>