<!DOCTYPE svg PUBLIC "-//W3C//DTD SVG 1.1//EN" "http://www.w3.org/Graphics/SVG/1.1/DTD/svg11.dtd">
<!-- Uploaded to: SVG Repo, www.svgrepo.com, Transformed by: SVG Repo Mixer Tools -->
<svg fill="#ffffff" width="800px" height="800px" viewBox="0 0 32 32" version="1.1" xmlns="http://www.w3.org/2000/svg" stroke="#ffffff">
<g id="SVGRepo_bgCarrier" stroke-width="0"/>
<g id="SVGRepo_tracerCarrier" stroke-linecap="round" stroke-linejoin="round"/>
<g id="SVGRepo_iconCarrier"> <title>salesforce</title> <path d="M13.515 7.793c0.954-1.003 2.3-1.628 3.791-1.628 0.001 0 0.003 0 0.004 0h-0c1.971 0.026 3.681 1.116 4.585 2.721l0.014 0.027c0.749-0.354 1.627-0.561 2.553-0.561 0.023 0 0.045 0 0.067 0l-0.003-0c3.559 0.045 6.426 2.941 6.426 6.505 0 3.572-2.879 6.472-6.444 6.506l-0.003 0c-0.453-0.006-0.892-0.053-1.317-0.137l0.046 0.008c-0.81 1.459-2.342 2.43-4.1 2.43-0.004 0-0.009 0-0.013-0h0.001c-0.748-0.007-1.454-0.179-2.086-0.48l0.030 0.013c-0.84 1.943-2.74 3.278-4.952 3.278-2.304 0-4.269-1.448-5.036-3.484l-0.012-0.037c-0.279 0.061-0.599 0.096-0.927 0.096-0.035 0-0.071-0-0.106-0.001l0.005 0c-2.76-0.014-4.991-2.254-4.991-5.015 0-0.011 0-0.023 0-0.034v0.002c0-0.001 0-0.001 0-0.002 0-1.854 0.996-3.476 2.482-4.36l0.023-0.013c-0.307-0.674-0.486-1.461-0.486-2.29 0-0.004 0-0.008 0-0.011v0.001c0.003-3.199 2.596-5.792 5.795-5.795h0c0.006-0 0.014-0 0.021-0 1.867 0 3.531 0.872 4.605 2.231l0.009 0.012z"/> </g>
</svg>